<?xml version="1.0" encoding="UTF-8" standalone="no"?>
<!-- Created with Inkscape (http://www.inkscape.org/) -->

<svg
   version="1.1"
   id="svg2"
   width="566.93335"
   height="476.02667"
   viewBox="0 0 566.93335 476.02667"
   sodipodi:docname="5674577_53515.eps"
   xmlns:inkscape="http://www.inkscape.org/namespaces/inkscape"
   xmlns:sodipodi="http://sodipodi.sourceforge.net/DTD/sodipodi-0.dtd"
   xmlns="http://www.w3.org/2000/svg"
   xmlns:svg="http://www.w3.org/2000/svg">
  <defs
     id="defs6" />
  <sodipodi:namedview
     id="namedview4"
     pagecolor="#ffffff"
     bordercolor="#000000"
     borderopacity="0.25"
     inkscape:showpageshadow="2"
     inkscape:pageopacity="0.0"
     inkscape:pagecheckerboard="0"
     inkscape:deskcolor="#d1d1d1" />
  <g
     id="g8"
     inkscape:groupmode="layer"
     inkscape:label="ink_ext_XXXXXX"
     transform="matrix(1.3333333,0,0,-1.3333333,0,476.02667)">
    <g
       id="g10"
       transform="scale(0.1)">
      <path
         d="M 0,0 H 4251.97 V 3570.21 H 0 Z"
         style="fill:#ffffff;fill-opacity:0;fill-rule:nonzero;stroke:none"
         id="path12" />
      <path
         d="m 3245.18,1157.32 c 0,-88.15 -68.16,-159.601 -152.22,-159.601 h -527.73 c -84.06,0 -152.21,71.451 -152.21,159.601 0,88.15 68.15,159.61 152.21,159.61 h 527.73 c 84.06,0 152.22,-71.46 152.22,-159.61 m 614.32,1276.83 c 0,88.13 -68.15,159.6 -152.22,159.6 h -204.36 c -84.06,0 -152.22,71.46 -152.22,159.61 0,88.14 68.16,159.59 152.22,159.59 h 204.36 c 84.07,0 152.22,71.46 152.22,159.6 0,88.15 -68.15,159.61 -152.22,159.61 H 544.68 c -84.067,0 -152.219,-71.46 -152.219,-159.61 0,-88.14 68.152,-159.6 152.219,-159.6 -84.067,0 -152.219,-71.45 -152.219,-159.59 0,-88.15 68.152,-159.61 152.219,-159.61 h 324.508 c 84.074,0 152.222,-71.47 152.222,-159.6 0,-88.16 -68.148,-159.61 -152.222,-159.61 H 544.68 c -84.067,0 -152.219,-71.46 -152.219,-159.6 0,-88.15 68.152,-159.59 152.219,-159.59 h 936.97 c 84.06,0 152.22,-71.47 152.22,-159.61 0,-88.16 -68.16,-159.61 -152.22,-159.61 H 544.68 c -84.067,0 -152.219,-71.46 -152.219,-159.61 0,-88.14 68.152,-159.59 152.219,-159.59 -84.067,0 -152.219,-71.46 -152.219,-159.61 0,-88.15 68.152,-159.601 152.219,-159.601 h 287.242 c -68.789,0 -124.559,-71.457 -124.559,-159.61 0,-88.14 55.77,-159.597 124.559,-159.597 H 3420.03 c 68.8,0 124.57,71.457 124.57,159.597 0,88.153 -55.77,159.61 -124.57,159.61 h 287.25 c 84.07,0 152.22,71.451 152.22,159.601 0,88.15 -68.15,159.61 -152.22,159.61 84.07,0 152.22,71.45 152.22,159.59 0,88.15 -68.15,159.61 -152.22,159.61 H 3257 c -84.06,0 -152.22,71.45 -152.22,159.61 0,88.14 68.16,159.61 152.22,159.61 h 450.28 c 84.07,0 152.22,71.44 152.22,159.59 0,88.14 -68.15,159.6 -152.22,159.6 84.07,0 152.22,71.45 152.22,159.61"
         style="fill:#b696d1;fill-opacity:1;fill-rule:nonzero;stroke:none"
         id="path14" />
      <path
         d="m 4000.89,520 c 0,-97.559 -79.08,-176.648 -176.64,-176.648 H 427.715 c -97.547,0 -176.641,79.089 -176.641,176.648 0,97.551 79.094,176.641 176.641,176.641 H 3824.25 c 97.56,0 176.64,-79.09 176.64,-176.641"
         style="fill:#584a71;fill-opacity:1;fill-rule:nonzero;stroke:none"
         id="path16" />
      <path
         d="m 3480.63,814.031 c 0,-56.5 -55.45,-102.211 -123.8,-102.211 H 677.555 c -68.391,0 -123.821,45.711 -123.821,102.211 0,56.418 55.43,102.16 123.821,102.16 H 3356.83 c 68.35,0 123.8,-45.742 123.8,-102.16"
         style="fill:#293339;fill-opacity:1;fill-rule:nonzero;stroke:none"
         id="path18" />
      <path
         d="m 555.199,826.039 c -0.574,-3.98 -1.465,-7.898 -1.465,-12.008 0,-56.5 55.43,-102.211 123.821,-102.211 H 3356.83 c 68.35,0 123.8,45.711 123.8,102.211 0,4.11 -0.9,8.028 -1.47,12.008 H 555.199"
         style="fill:#d3d2d2;fill-opacity:1;fill-rule:nonzero;stroke:none"
         id="path20" />
      <path
         d="M 553.734,916.191 H 3480.63 V 814.031 H 553.734 v 102.16"
         style="fill:#b4b3b3;fill-opacity:1;fill-rule:nonzero;stroke:none"
         id="path22" />
      <path
         d="m 3176.7,2538.21 c 75.52,0 94.05,-8.13 94.05,-70.83 V 979.551 c 0,-62.692 -18.53,-70.84 -94.05,-70.84 H 857.633 c -75.52,0 -94.016,8.148 -94.016,70.84 V 2467.38 c 0,62.7 18.496,70.83 94.016,70.83 H 3176.7"
         style="fill:#d3d2d2;fill-opacity:1;fill-rule:nonzero;stroke:none"
         id="path24" />
      <path
         d="M 763.617,2467.38 V 979.551 c 0,-36.86 6.504,-54.781 27.11,-63.36 -4.09,10.161 -5.743,23.688 -5.743,41.938 V 2445.99 c 0,62.69 18.493,70.84 94.02,70.84 H 3198.06 c 31.13,0 52.47,-1.46 66.94,-7.5 -9.99,24.71 -34.78,28.88 -88.3,28.88 H 857.633 c -75.52,0 -94.016,-8.13 -94.016,-70.83"
         style="fill:#e5e4e4;fill-opacity:1;fill-rule:nonzero;stroke:none"
         id="path26" />
      <path
         d="m 2167.2,2471.25 c 0,-14.73 -7.7,-26.67 -17.18,-26.67 h -159.78 c -9.47,0 -17.18,11.94 -17.18,26.67 0,14.69 7.71,26.61 17.18,26.61 h 159.78 c 9.48,0 17.18,-11.92 17.18,-26.61"
         style="fill:#a7a5a6;fill-opacity:1;fill-rule:nonzero;stroke:none"
         id="path28" />
      <path
         d="m 2236.48,2471.23 c 0,-14.73 -11.93,-26.65 -26.64,-26.65 -14.7,0 -26.62,11.92 -26.62,26.65 0,14.71 11.92,26.63 26.62,26.63 14.71,0 26.64,-11.92 26.64,-26.63"
         style="fill:#a7a5a6;fill-opacity:1;fill-rule:nonzero;stroke:none"
         id="path30" />
      <path
         d="m 842.602,996.789 h 2328.91 v 1419.14 H 842.602 Z"
         style="fill:#2cb5d3;fill-opacity:1;fill-rule:nonzero;stroke:none"
         id="path32" />
      <path
         d="M 898.461,996.789 H 842.602 V 2415.93 h 261.988 v -41.76 H 898.461 V 996.789"
         style="fill:#2494ae;fill-opacity:1;fill-rule:nonzero;stroke:none"
         id="path34" />
      <path
         d="M 1104.59,1190.12 H 3507.23 V 2813.51 H 1104.59 Z"
         style="fill:#ffffff;fill-opacity:1;fill-rule:nonzero;stroke:none"
         id="path36" />
      <path
         d="M 3507.23,2553.78 H 1104.59 v 137.97 h 2402.64 v -137.97"
         style="fill:#347eab;fill-opacity:1;fill-rule:nonzero;stroke:none"
         id="path38" />
      <path
         d="M 3507.23,2553.78 H 1104.59 v -202.95 h 2402.64 v 202.95"
         style="fill:#65bed9;fill-opacity:1;fill-rule:nonzero;stroke:none"
         id="path40" />
      <path
         d="M 2305.9,2407.69 H 1234.48 v 81.18 H 2305.9 v -81.18"
         style="fill:#ffffff;fill-opacity:1;fill-rule:nonzero;stroke:none"
         id="path42" />
      <path
         d="m 2679.29,2407.69 h -292.21 v 81.18 h 292.21 v -81.18"
         style="fill:#3d4d57;fill-opacity:1;fill-rule:nonzero;stroke:none"
         id="path44" />
      <path
         d="m 1770.19,1898.34 h -478.91 v 340.91 h 478.91 v -340.91"
         style="fill:#d3d2d2;fill-opacity:1;fill-rule:nonzero;stroke:none"
         id="path46" />
      <path
         d="m 1867.59,2186.52 h 519.488 v 32.4609 H 1867.59 Z"
         style="fill:#f14624;fill-opacity:1;fill-rule:nonzero;stroke:none"
         id="path48" />
      <path
         d="M 1867.59,2064.75 H 3304.3 v 32.4688 H 1867.59 Z"
         style="fill:#bdbcbc;fill-opacity:1;fill-rule:nonzero;stroke:none"
         id="path50" />
      <path
         d="M 1867.59,1991.69 H 3304.3 v 32.4688 H 1867.59 Z"
         style="fill:#bdbcbc;fill-opacity:1;fill-rule:nonzero;stroke:none"
         id="path52" />
      <path
         d="m 1867.59,1918.65 h 665.602 v 32.4609 H 1867.59 Z"
         style="fill:#bdbcbc;fill-opacity:1;fill-rule:nonzero;stroke:none"
         id="path54" />
      <path
         d="m 1770.19,1470.83 h -478.91 v 340.94 h 478.91 v -340.94"
         style="fill:#d3d2d2;fill-opacity:1;fill-rule:nonzero;stroke:none"
         id="path56" />
      <path
         d="m 1867.59,1759.03 h 519.488 v 32.457 H 1867.59 Z"
         style="fill:#f14624;fill-opacity:1;fill-rule:nonzero;stroke:none"
         id="path58" />
      <path
         d="M 1867.59,1637.24 H 3304.3 v 32.4727 H 1867.59 Z"
         style="fill:#bdbcbc;fill-opacity:1;fill-rule:nonzero;stroke:none"
         id="path60" />
      <path
         d="M 1867.59,1564.22 H 3304.3 v 32.4727 H 1867.59 Z"
         style="fill:#bdbcbc;fill-opacity:1;fill-rule:nonzero;stroke:none"
         id="path62" />
      <path
         d="m 1867.59,1491.15 h 665.602 v 32.4609 H 1867.59 Z"
         style="fill:#bdbcbc;fill-opacity:1;fill-rule:nonzero;stroke:none"
         id="path64" />
      <path
         d="m 3226.52,2755.02 c 0,-25.18 -20.41,-45.57 -45.58,-45.57 -25.18,0 -45.6,20.39 -45.6,45.57 0,25.19 20.42,45.58 45.6,45.58 25.17,0 45.58,-20.39 45.58,-45.58"
         style="fill:#cfcece;fill-opacity:1;fill-rule:nonzero;stroke:none"
         id="path66" />
      <path
         d="m 3349.9,2755.02 c 0,-25.18 -20.41,-45.57 -45.58,-45.57 -25.2,0 -45.6,20.39 -45.6,45.57 0,25.19 20.4,45.58 45.6,45.58 25.17,0 45.58,-20.39 45.58,-45.58"
         style="fill:#cfcece;fill-opacity:1;fill-rule:nonzero;stroke:none"
         id="path68" />
      <path
         d="m 3104.78,2755.02 c 0,-25.18 -20.42,-45.57 -45.6,-45.57 -25.18,0 -45.58,20.39 -45.58,45.57 0,25.19 20.4,45.58 45.58,45.58 25.18,0 45.6,-20.39 45.6,-45.58"
         style="fill:#cfcece;fill-opacity:1;fill-rule:nonzero;stroke:none"
         id="path70" />
      <path
         d="m 1640.54,1769.26 c -99.53,-292.47 -417.24,-448.8 -709.665,-349.28 -292.414,99.51 -448.77,417.25 -349.258,709.66 99.516,292.44 417.235,448.77 709.673,349.25 292.4,-99.51 448.77,-417.23 349.25,-709.63"
         style="fill:#183a59;fill-opacity:1;fill-rule:nonzero;stroke:none"
         id="path72" />
      <path
         d="m 1567.17,1794.22 c -85.71,-251.9 -359.43,-386.61 -611.307,-300.86 -251.894,85.72 -386.617,359.41 -300.886,611.3 85.73,251.9 359.413,386.59 611.323,300.9 251.89,-85.78 386.59,-359.45 300.87,-611.34"
         style="fill:#65bed9;fill-opacity:1;fill-rule:nonzero;stroke:none"
         id="path74" />
      <path
         d="m 1034.86,1491.72 c -251.868,85.71 -386.594,359.4 -300.86,611.34 64.805,190.39 237.008,313.73 426.02,325.63 -218.403,22.5 -431.274,-107.31 -505.043,-324.03 -85.731,-251.89 48.992,-525.58 300.886,-611.3 61.467,-20.94 124.247,-28.66 185.297,-24.81 -35.49,3.65 -71.11,11.18 -106.3,23.17"
         style="fill:#4093af;fill-opacity:1;fill-rule:nonzero;stroke:none"
         id="path76" />
      <path
         d="m 882.758,1436.35 -56.055,-164.74 96.231,-32.74 56.054,164.73"
         style="fill:#183a59;fill-opacity:1;fill-rule:nonzero;stroke:none"
         id="path78" />
      <path
         d="M 805.766,1309.66 595.559,692.059 c -15.075,-44.289 8.609,-92.418 52.898,-107.489 44.289,-15.07 92.41,8.61 107.484,52.899 l 210.207,617.611 c 15.075,44.29 -8.609,92.41 -52.898,107.48 -44.289,15.07 -92.414,-8.61 -107.484,-52.9"
         style="fill:#183a59;fill-opacity:1;fill-rule:nonzero;stroke:none"
         id="path80" />
      <path
         d="m 1490.5,1799.22 c -65.47,-17.93 -146.54,69.65 -181.03,195.67 -34.48,125.95 -9.35,242.62 56.13,260.53 65.51,17.95 146.56,-69.62 181.04,-195.64 34.51,-125.93 9.36,-242.64 -56.14,-260.56"
         style="fill:#86c7d9;fill-opacity:1;fill-rule:nonzero;stroke:none"
         id="path82" />
      <path
         d="m 3194.71,1956.38 -16.65,25.59 c 0,0 -30.43,24.45 -27.61,39.01 2.81,14.55 19.9,28.23 34.07,34.82 14.13,6.63 26.63,-10.55 26.63,-10.55 0,0 14.58,13.32 23.78,10.55 9.22,-2.8 9.59,-11.6 12.37,-26.44 2.77,-14.84 -5.7,-67.07 -5.7,-67.07 l -46.89,-5.91"
         style="fill:#d28b6b;fill-opacity:1;fill-rule:nonzero;stroke:none"
         id="path84" />
      <path
         d="m 3483.17,1996.1 c 0,0 -2.59,-7.77 -7.13,-21.36 -4.6,-13.47 -11.27,-32.62 -19.79,-55.48 -8.55,-22.87 -18.85,-49.44 -31.46,-77.8 -6.36,-14.18 -13.24,-28.8 -21.47,-43.76 -4.15,-7.49 -8.65,-15.07 -14.09,-22.9 -2.79,-3.94 -5.8,-7.93 -9.54,-12.13 -3.88,-4.16 -7.99,-8.68 -16.09,-13.49 -3.91,-2.27 -9.69,-4.81 -17.09,-5.58 -7.82,-0.85 -16.89,1.54 -23.04,5.51 -2.9,1.86 -5.65,4.09 -7.39,5.98 l -1.46,1.54 -0.71,0.78 -1.18,1.45 -0.11,0.16 -0.87,1.22 -3.46,4.88 c -4.61,6.5 -9.23,12.78 -13.75,20.27 -4.51,7.17 -8.98,14.29 -13.4,21.33 -3.99,6.74 -7.92,13.39 -11.8,19.94 -15.47,26.16 -29.27,50.65 -41.07,71.7 -23.31,42.24 -38.86,70.39 -38.86,70.39 l 42.69,23.89 c 0,0 16.19,-27.45 40.48,-68.62 12.27,-20.49 26.66,-44.43 42.47,-69.49 3.95,-6.25 7.97,-12.62 12.03,-19.07 3.95,-5.93 7.94,-11.95 11.98,-18.01 3.69,-5.98 8.65,-12.38 13.46,-18.74 l 3.61,-4.78 0.9,-1.2 0.11,-0.15 c 0.92,-1.14 -1.1,1.36 -0.94,1.17 l -0.18,0.25 -0.4,0.47 c -0.44,0.37 -1.52,1.48 -2.79,2.19 -2.73,1.93 -7.79,3.22 -11.59,2.74 -3.44,-0.21 -5.39,-1.41 -5.87,-1.59 -1.18,-0.76 0.48,0.46 1.88,2.26 1.52,1.84 3.28,4.26 5.02,6.87 3.51,5.38 6.99,11.55 10.28,17.95 6.6,12.85 12.6,26.47 18.12,39.84 11.03,26.83 20.27,52.78 27.9,75.12 7.61,22.36 13.57,41.19 17.65,54.35 3.96,13.1 6.23,20.59 6.23,20.59 l 60.72,-18.69"
         style="fill:#d28b6b;fill-opacity:1;fill-rule:nonzero;stroke:none"
         id="path86" />
      <path
         d="m 3350.73,690.602 c 0,0 -69.76,-39.993 -150.84,-51.403 -35.98,-5.078 -44.59,-30.289 -29.66,-36.758 45.8,-8.691 257.63,-19.449 267.05,1.618 12.6,28.14 -17.9,80.312 -15.08,95.211 4.23,22.21 -71.47,-8.668 -71.47,-8.668"
         style="fill:#1a1d27;fill-opacity:1;fill-rule:nonzero;stroke:none"
         id="path88" />
      <path
         d="m 3748.75,698.57 c 0,0 27.12,-70.05 105.16,-80.039 34.67,-4.429 30.27,-42.75 15.79,-49.152 -20.02,-4.008 -100.18,-12.988 -100.18,-12.988 0,0 -127.99,50.597 -132.83,61.601 -11.81,26.86 35.68,65.348 33.14,79.59 -3.8,21.277 78.92,0.988 78.92,0.988"
         style="fill:#1a1d27;fill-opacity:1;fill-rule:nonzero;stroke:none"
         id="path90" />
      <path
         d="m 3356.66,1534.65 c -6.99,-68.39 -10.91,-293.82 -9.43,-442.43 0.91,-95.591 3.5,-401.618 3.5,-401.618 l 107.36,-15.68 c 4.69,50.488 31.58,401.418 31.58,401.418 0,0 27.47,277.51 27.96,356.04 0.19,153.59 -150.8,202.09 -160.97,102.27"
         style="fill:#222634;fill-opacity:1;fill-rule:nonzero;stroke:none"
         id="path92" />
      <path
         d="m 3347.31,1602.36 c -6.09,99.89 251.69,94.62 284.97,0 48.18,-136.88 129.59,-915.161 129.59,-915.161 l -111.08,1.922 c -13.95,48.75 -92.9,547.229 -145.04,669.149 -81.15,42.35 -149.16,92.33 -158.44,244.09"
         style="fill:#2e3448;fill-opacity:1;fill-rule:nonzero;stroke:none"
         id="path94" />
      <path
         d="m 3341.42,1863.73 c 11.6,145.97 43.07,265.82 83.42,283.02 19.17,8.18 72.01,5.83 92.79,4.42 26.3,-1.77 75.72,-19.65 95.26,-52.29 37.5,-62.65 11.31,-237.81 16.66,-304.94 8.88,-111.96 11.67,-218.97 11.67,-218.97 h -296.64 c 0,0 -12.04,176.78 -3.16,288.76"
         style="fill:#ffffff;fill-opacity:1;fill-rule:nonzero;stroke:none"
         id="path96" />
      <path
         d="m 3442.15,2194.57 c 0,28.15 72.82,37.83 69.5,12.72 -3.33,-25.13 5.98,-56.12 5.98,-56.12 0,0 -18.94,-35.41 -58.48,-35.47 -39.52,-0.04 -34.31,31.05 -34.31,31.05 l 18.15,11.25 c 0,0 -0.84,22.48 -0.84,36.57"
         style="fill:#f8a680;fill-opacity:1;fill-rule:nonzero;stroke:none"
         id="path98" />
      <path
         d="m 3349.54,2398.58 c 0,-133.33 42.5,-157.92 136.84,-183.66 63.11,-17.21 174.95,21.47 182.52,212.79 2.26,56.5 -6.05,136.33 -49.49,130.61 -27.77,77 -65.55,62.73 -121.85,62.73 -116.42,0 -244.67,-69.95 -148.02,-222.47"
         style="fill:#222634;fill-opacity:1;fill-rule:nonzero;stroke:none"
         id="path100" />
      <path
         d="m 3332.83,2371.58 c 0,-137.01 49.11,-192.89 109.32,-192.89 68.85,0 161.84,81.6 161.84,192.89 0,136.99 -60.69,212.44 -135.59,212.44 -74.87,0 -135.57,-75.45 -135.57,-212.44"
         style="fill:#e28d72;fill-opacity:1;fill-rule:nonzero;stroke:none"
         id="path102" />
      <path
         d="m 3339.49,2379.06 c 0,-132.19 27.77,-187.95 98.95,-187.95 71.2,0 158.88,45.52 165.55,189.39 6.13,132.04 -64.39,203.52 -135.59,203.52 -71.16,0 -128.91,-72.77 -128.91,-204.96"
         style="fill:#f8a680;fill-opacity:1;fill-rule:nonzero;stroke:none"
         id="path104" />
      <path
         d="m 3458.49,2590.13 c 60.22,0 132.01,-33.47 138.83,-92.47 -23.76,-22.94 -52.91,-38.38 -85.38,-46.92 -20.69,-5.43 -50.6,28.63 -73.5,28.63 -31.66,0 -55.97,-34.77 -79.99,-25.71 -21.75,8.16 -36.82,22.16 -38.81,45.75 38.94,42.6 79.94,90.72 138.85,90.72"
         style="fill:#222634;fill-opacity:1;fill-rule:nonzero;stroke:none"
         id="path106" />
      <path
         d="m 3638.18,2369.97 c 31.55,-12.63 2.94,-73 -29.39,-67.69 -13.82,2.27 -34.08,2.96 -34.08,24.82 0,21.86 25.54,22.67 25.54,22.67 0,0 9.09,31.74 37.93,20.2"
         style="fill:#f8a680;fill-opacity:1;fill-rule:nonzero;stroke:none"
         id="path108" />
      <path
         d="m 3622.91,2312.67 c 0,0 16.39,24.67 8.68,39.99 -3.54,7 -9.65,7.99 -12.81,7.99 -1.25,0 -2.04,-0.16 -2.04,-0.16 0,0 3.89,1.49 8.62,1.49 4.89,0 10.7,-1.59 14.06,-8.08 8.28,-16.07 -16.51,-41.23 -16.51,-41.23"
         style="fill:#b66051;fill-opacity:1;fill-rule:nonzero;stroke:none"
         id="path110" />
      <path
         d="m 3445.81,2325.85 c -3.78,2.09 -8.5,3.36 -13.62,3.36 -5.11,0 -9.82,-1.27 -13.6,-3.36 2.05,6.3 7.35,10.81 13.6,10.81 6.27,0 11.56,-4.51 13.62,-10.81"
         style="fill:#b66051;fill-opacity:1;fill-rule:nonzero;stroke:none"
         id="path112" />
      <path
         d="m 3492.41,2284.2 c 0,0 -8.12,-47.81 -53.97,-47.81 -45.84,0 -53.95,47.81 -53.95,47.81 h 107.92"
         style="fill:#fcfcfc;fill-opacity:1;fill-rule:nonzero;stroke:none"
         id="path114" />
      <path
         d="m 3538.21,2414.17 c -9.46,13.42 -29.47,12.35 -49.91,6.68 -6.82,-1.9 -3.44,-11.53 3.5,-10.4 12.59,2.06 27.25,2.06 37.87,-11.51 4.37,-5.56 12.63,9.44 8.54,15.23"
         style="fill:#222634;fill-opacity:1;fill-rule:nonzero;stroke:none"
         id="path116" />
      <path
         d="m 3595.86,2392.94 c 20.88,82.06 -46.37,71.56 -46.37,71.56 0,0 39.66,74.52 55.01,43.93 5.75,-11.49 37.51,-107.5 7.78,-140.7 0.03,-20.27 -17.7,-35.66 -24,-33.67 -6.32,1.97 1.26,33.99 7.58,58.88"
         style="fill:#222634;fill-opacity:1;fill-rule:nonzero;stroke:none"
         id="path118" />
      <path
         d="m 3498.01,2363.86 c 0,-2.95 2.41,-5.37 5.38,-5.37 2.98,0 5.39,2.42 5.39,5.37 v 17.25 c 0,2.97 -2.41,5.38 -5.39,5.38 -2.97,0 -5.38,-2.41 -5.38,-5.38 v -17.25"
         style="fill:#222634;fill-opacity:1;fill-rule:nonzero;stroke:none"
         id="path120" />
      <path
         d="m 3349.58,2414.17 c 9.47,13.42 29.47,12.35 49.92,6.68 6.81,-1.9 3.43,-11.53 -3.5,-10.4 -12.59,2.06 -27.26,2.06 -37.88,-11.51 -4.36,-5.56 -12.62,9.44 -8.54,15.23"
         style="fill:#222634;fill-opacity:1;fill-rule:nonzero;stroke:none"
         id="path122" />
      <path
         d="m 3389.79,2363.86 c 0,-2.95 -2.41,-5.37 -5.39,-5.37 -2.98,0 -5.38,2.42 -5.38,5.37 v 17.25 c 0,2.97 2.4,5.38 5.38,5.38 2.98,0 5.39,-2.41 5.39,-5.38 v -17.25"
         style="fill:#222634;fill-opacity:1;fill-rule:nonzero;stroke:none"
         id="path124" />
      <path
         d="m 3604.18,1921.73 c 0,0 -2.59,-7.76 -7.12,-21.35 -4.6,-13.47 -11.27,-32.61 -19.79,-55.48 -8.55,-22.87 -18.85,-49.45 -31.46,-77.81 -6.35,-14.18 -13.25,-28.79 -21.47,-43.76 -4.14,-7.49 -8.65,-15.07 -14.08,-22.9 -2.8,-3.93 -5.81,-7.93 -9.55,-12.12 -3.88,-4.17 -7.99,-8.69 -16.09,-13.49 -3.91,-2.28 -9.68,-4.82 -17.08,-5.59 -7.82,-0.84 -16.88,1.54 -23.04,5.5 -2.89,1.87 -5.65,4.09 -7.4,5.99 l -1.45,1.52 -0.71,0.78 -1.19,1.48 -0.1,0.14 -0.87,1.23 -3.47,4.88 c -4.62,6.49 -9.23,12.77 -13.75,20.26 -4.51,7.18 -8.98,14.3 -13.41,21.34 -3.98,6.74 -7.92,13.39 -11.79,19.94 -15.47,26.15 -29.27,50.64 -41.08,71.7 -23.31,42.24 -38.85,70.39 -38.85,70.39 l 42.69,23.89 c 0,0 16.19,-27.45 40.47,-68.63 12.27,-20.48 26.67,-44.41 42.48,-69.48 3.95,-6.26 7.96,-12.63 12.03,-19.07 3.95,-5.94 7.94,-11.95 11.97,-18.01 3.7,-5.98 8.66,-12.38 13.47,-18.74 l 3.6,-4.77 0.91,-1.21 0.11,-0.14 c 0.92,-1.15 -1.1,1.36 -0.95,1.18 l -0.18,0.24 -0.4,0.46 c -0.43,0.37 -1.53,1.49 -2.79,2.19 -2.73,1.94 -7.78,3.22 -11.59,2.74 -3.44,-0.21 -5.37,-1.4 -5.86,-1.59 -1.17,-0.75 0.49,0.46 1.88,2.27 1.52,1.82 3.28,4.26 5.03,6.86 3.5,5.39 6.98,11.55 10.27,17.95 6.6,12.85 12.6,26.48 18.12,39.85 11.03,26.81 20.27,52.78 27.89,75.11 7.62,22.37 13.58,41.19 17.66,54.36 3.96,13.09 6.22,20.58 6.22,20.58 l 60.72,-18.69"
         style="fill:#f8a680;fill-opacity:1;fill-rule:nonzero;stroke:none"
         id="path126" />
      <path
         d="m 3580.56,1761.55 -99.74,7.61 c 0,0 16.04,355.13 106.42,351.87 133.38,-4.81 -6.68,-359.48 -6.68,-359.48"
         style="fill:#d4f1fc;fill-opacity:1;fill-rule:nonzero;stroke:none"
         id="path128" />
      <path
         d="m 3276.93,2005.44 h -128.06 v 19.73 h 128.06 v -19.73"
         style="fill:#3d4d57;fill-opacity:1;fill-rule:nonzero;stroke:none"
         id="path130" />
      <path
         d="m 3276.93,2005.44 h -128.06 l 124.09,-90.54 h 92.32 l -88.35,90.54"
         style="fill:#35424a;fill-opacity:1;fill-rule:nonzero;stroke:none"
         id="path132" />
      <path
         d="m 3276.93,2005.44 88.35,-90.54 v 19.7 l -88.35,90.57 v -19.73"
         style="fill:#2b363c;fill-opacity:1;fill-rule:nonzero;stroke:none"
         id="path134" />
      <path
         d="m 3317.62,1883.08 -23.32,19.71 -39.71,14.98 26.76,61.06 26.36,-5.92 -1.04,21.77 c 0,0 10.78,3.62 20.4,3.64 9.6,-0.04 10.75,-11.53 17.71,-24.92 6.93,-13.4 16.03,-71.12 16.03,-71.12 l -43.19,-19.2"
         style="fill:#f8a680;fill-opacity:1;fill-rule:nonzero;stroke:none"
         id="path136" />
      <path
         d="m 3254.59,1917.77 c 0,0 -45.17,16.28 -50.63,20.25 -5.47,3.97 -5.55,13.11 0.5,11.41 6.04,-1.7 65.53,-18.35 65.53,-18.35 l -15.4,-13.31"
         style="fill:#f8a680;fill-opacity:1;fill-rule:nonzero;stroke:none"
         id="path138" />
      <path
         d="m 3261.5,1931.08 c 0,0 -67.46,23.35 -72.92,27.31 -5.46,3.98 -5.57,13.11 0.49,11.43 6.04,-1.7 80.92,-22.87 80.92,-22.87 l -8.49,-15.87"
         style="fill:#f8a680;fill-opacity:1;fill-rule:nonzero;stroke:none"
         id="path140" />
      <path
         d="m 3272.87,1946.95 c 0,0 -67.46,23.37 -72.92,27.34 -5.46,3.97 -5.54,13.1 0.49,11.41 6.04,-1.7 80.91,-22.87 80.91,-22.87 l -8.48,-15.88"
         style="fill:#f8a680;fill-opacity:1;fill-rule:nonzero;stroke:none"
         id="path142" />
      <path
         d="m 3288.84,1959.36 c 0,0 -67.48,23.36 -72.93,27.33 -5.46,3.97 -5.54,13.11 0.49,11.42 6.05,-1.69 80.9,-22.88 80.9,-22.88 l -8.46,-15.87"
         style="fill:#f8a680;fill-opacity:1;fill-rule:nonzero;stroke:none"
         id="path144" />
    </g>
  </g>
</svg>
